<svg width="24" height="25" viewBox="0 0 24 25" fill="none" xmlns="http://www.w3.org/2000/svg">
<path d="M3.5 8H20.5C21.3286 8 22 7.32861 22 6.5C22 5.67139 21.3286 5 20.5 5H3.5C2.67139 5 2 5.67139 2 6.5C2 7.32861 2.67139 8 3.5 8Z" fill="black"/>
<path d="M20.5 11H3.5C2.67139 11 2 11.6714 2 12.5C2 13.3286 2.67139 14 3.5 14H20.5C21.3286 14 22 13.3286 22 12.5C22 11.6714 21.3286 11 20.5 11Z" fill="black"/>
<path d="M20.5 17H3.5C2.67139 17 2 17.6714 2 18.5C2 19.3286 2.67139 20 3.5 20H20.5C21.3286 20 22 19.3286 22 18.5C22 17.6714 21.3286 17 20.5 17Z" fill="black"/>
</svg>
