<svg width="24" height="24" viewBox="0 0 24 24" fill="none" xmlns="http://www.w3.org/2000/svg">
<g clip-path="url(#clip0_411_8544)">
<path d="M11.9994 5.98828C8.68483 5.98828 5.98828 8.68536 5.98828 12C5.98828 15.3146 8.68483 18.0117 11.9994 18.0117C15.3135 18.0117 18.0106 15.3151 18.0106 12C18.0106 8.68483 15.3135 5.98828 11.9994 5.98828Z" fill="#F6F6F6"/>
<path d="M12.001 4.22179C11.3532 4.22179 10.8281 3.69672 10.8281 3.04942V1.1729C10.8281 0.525066 11.3532 0 12.001 0C12.6489 0 13.1739 0.525066 13.1739 1.1729V3.04942C13.1739 3.69672 12.6483 4.22179 12.001 4.22179Z" fill="#F6F6F6"/>
<path d="M12.001 19.7773C11.3532 19.7773 10.8281 20.3024 10.8281 20.9502V22.8262C10.8281 23.4746 11.3532 23.9997 12.001 23.9997C12.6489 23.9997 13.1739 23.4746 13.1739 22.8262V20.9502C13.1739 20.3024 12.6483 19.7773 12.001 19.7773Z" fill="#F6F6F6"/>
<path d="M17.4994 6.49973C17.0419 6.04162 17.0419 5.2992 17.4994 4.84109L18.8264 3.51408C19.284 3.05651 20.027 3.05651 20.4851 3.51408C20.9432 3.97218 20.9432 4.71514 20.4851 5.17271L19.1581 6.49973C18.7005 6.95783 17.9581 6.95783 17.4994 6.49973Z" fill="#F6F6F6"/>
<path d="M6.50091 17.5012C6.0428 17.0426 5.30037 17.0426 4.84227 17.5012L3.51525 18.8277C3.05768 19.2853 3.05715 20.0288 3.51525 20.4863C3.97336 20.9439 4.71632 20.9439 5.17389 20.4863L6.50091 19.1588C6.95901 18.7012 6.95901 17.9582 6.50091 17.5012Z" fill="#F6F6F6"/>
<path d="M19.7773 12C19.7773 11.3522 20.3024 10.8271 20.9502 10.8271H22.8268C23.4746 10.8271 23.9997 11.3522 23.9997 12C23.9997 12.6479 23.4746 13.1724 22.8268 13.1724H20.9502C20.3024 13.1724 19.7773 12.6479 19.7773 12Z" fill="#F6F6F6"/>
<path d="M4.22179 12C4.22179 11.3522 3.69672 10.8271 3.04889 10.8271H1.1729C0.525066 10.8271 0 11.3522 0 12C0 12.6479 0.525066 13.1724 1.1729 13.1724H3.04942C3.69672 13.1724 4.22179 12.6479 4.22179 12Z" fill="#F6F6F6"/>
<path d="M17.4998 17.5007C17.9579 17.0431 18.7009 17.0431 19.1585 17.5007L20.4855 18.8277C20.9436 19.2847 20.9436 20.0282 20.4855 20.4858C20.0274 20.9433 19.2849 20.9433 18.8268 20.4858L17.4998 19.1588C17.0417 18.7006 17.0417 17.9582 17.4998 17.5007Z" fill="#F6F6F6"/>
<path d="M6.5011 6.50057C6.95921 6.04247 6.95921 5.30004 6.5011 4.84194L5.17409 3.51545C4.71599 3.05735 3.97356 3.05735 3.51545 3.51545C3.05735 3.97303 3.05735 4.71599 3.51545 5.17356L4.84247 6.50057C5.30057 6.95921 6.043 6.95921 6.5011 6.50057Z" fill="#F6F6F6"/>
</g>
<defs>
<clipPath id="clip0_411_8544">
<rect width="24" height="24" fill="white"/>
</clipPath>
</defs>
</svg>
